HIERARCHY
ROOT Hips
{
	OFFSET -0.001795 -0.223333 0.028219
	CHANNELS 6 Xposition Yposition Zposition Zrotation Yrotation Xrotation 
	JOINT LeftUpLeg
	{
		OFFSET 0.069520 -0.091406 -0.006815
		CHANNELS 3 Zrotation Yrotation Xrotation
		JOINT LeftLeg
		{
			OFFSET 0.034277 -0.375199 -0.004496
			CHANNELS 3 Zrotation Yrotation Xrotation
			JOINT LeftFoot
			{
				OFFSET -0.013596 -0.397961 -0.043693
				CHANNELS 3 Zrotation Yrotation Xrotation
				JOINT LeftToe
				{
					OFFSET 0.026358 -0.055791 0.119288
					CHANNELS 3 Zrotation Yrotation Xrotation
					End Site
					{
						OFFSET 0.000000 0.000000 0.000000
					}
				}
			}
		}
	}
	JOINT RightUpLeg
	{
		OFFSET -0.067670 -0.090522 -0.004320
		CHANNELS 3 Zrotation Yrotation Xrotation
		JOINT RightLeg
		{
			OFFSET -0.038290 -0.382569 -0.008850
			CHANNELS 3 Zrotation Yrotation Xrotation
			JOINT RightFoot
			{
				OFFSET 0.015774 -0.398415 -0.042312
				CHANNELS 3 Zrotation Yrotation Xrotation
				JOINT RightToe
				{
					OFFSET -0.025372 -0.048144 0.123348
					CHANNELS 3 Zrotation Yrotation Xrotation
					End Site
					{
						OFFSET 0.000000 0.000000 0.000000
					}
				}
			}
		}
	}
	JOINT Spine
	{
		OFFSET -0.002533 0.108963 -0.026696
		CHANNELS 3 Zrotation Yrotation Xrotation
		JOINT Spine1
		{
			OFFSET 0.005487 0.135180 0.001092
			CHANNELS 3 Zrotation Yrotation Xrotation
			JOINT Spine2
			{
				OFFSET 0.001457 0.052922 0.025425
				CHANNELS 3 Zrotation Yrotation Xrotation
				JOINT Neck
				{
					OFFSET -0.002778 0.213870 -0.042857
					CHANNELS 3 Zrotation Yrotation Xrotation
					JOINT Head
					{
						OFFSET 0.005152 0.064970 0.051349
						CHANNELS 3 Zrotation Yrotation Xrotation
						End Site
						{
							OFFSET 0.000000 0.000000 0.000000
						}
					}
				}
				JOINT LeftShoulder
				{
					OFFSET 0.078845 0.121749 -0.034090
					CHANNELS 3 Zrotation Yrotation Xrotation
					JOINT LeftArm
					{
						OFFSET 0.090977 0.030469 -0.008868
						CHANNELS 3 Zrotation Yrotation Xrotation
						JOINT LeftForeArm
						{
							OFFSET 0.259612 -0.012772 -0.027456
							CHANNELS 3 Zrotation Yrotation Xrotation
							JOINT LeftHand
							{
								OFFSET 0.249234 0.008986 -0.001171
								CHANNELS 3 Zrotation Yrotation Xrotation
								End Site
								{
									OFFSET 0.000000 0.000000 0.000000
								}
							}
						}
					}
				}
				JOINT RightShoulder
				{
					OFFSET -0.081759 0.118833 -0.038615
					CHANNELS 3 Zrotation Yrotation Xrotation
					JOINT RightArm
					{
						OFFSET -0.096012 0.032551 -0.009143
						CHANNELS 3 Zrotation Yrotation Xrotation
						JOINT RightForeArm
						{
							OFFSET -0.253742 -0.013329 -0.021401
							CHANNELS 3 Zrotation Yrotation Xrotation
							JOINT RightHand
							{
								OFFSET -0.255298 0.007772 -0.005559
								CHANNELS 3 Zrotation Yrotation Xrotation
								End Site
								{
									OFFSET 0.000000 0.000000 0.000000
								}
							}
						}
					}
				}
			}
		}
	}
}
MOTION
Frames: 13
Frame Time: 0.050000
0.000000 0.904083 0.000000 -9.546288 -36.208370 22.209740 9.013842 8.862493 -48.187600 4.107382 0.672735 33.290811 -2.747889 -4.693772 2.847098 0.000000 0.000000 0.000000 -10.314394 3.258668 -24.514927 14.427637 -0.017662 22.221763 -14.102236 -31.215573 6.945897 0.000000 0.000000 0.000000 -11.057124 6.697341 31.101476 3.199378 -0.643183 -22.085372 -2.649584 13.445307 27.940766 0.350232 0.735755 -25.357643 0.000000 0.000000 0.000000 -14.441594 -17.660694 9.621473 -46.960073 -47.469051 11.566019 39.475175 -76.191865 -22.032308 0.000000 0.000000 0.000000 -4.554564 16.379417 5.621005 33.227343 48.678486 6.627216 -110.694421 41.110072 -49.919448 0.000000 0.000000 0.000000 
-0.000159 0.899003 0.000333 -10.917282 -37.799438 22.379380 9.400215 9.502747 -47.664066 5.610540 0.329395 34.326275 -4.553287 -7.996745 2.120403 0.000000 0.000000 0.000000 -9.307202 3.318273 -24.139044 15.711018 -0.060360 19.889258 -17.960130 -36.474342 10.726218 0.000000 0.000000 0.000000 -11.152700 6.993968 31.361345 2.354540 -0.498744 -22.415949 -2.199955 12.089023 29.222190 -0.755458 1.016955 -26.377230 0.000000 0.000000 0.000000 -19.834488 -16.136754 10.676279 -38.897964 -45.275542 6.970645 62.104369 -80.508946 -42.899658 0.000000 0.000000 0.000000 -8.744695 16.671833 5.476808 33.524294 53.182675 7.174386 -104.952441 36.576872 -40.908591 0.000000 0.000000 0.000000 
-0.000159 0.894236 0.001327 -9.848824 -36.395901 22.535074 7.095564 8.697697 -50.664473 7.346992 -0.440659 37.913555 -3.538085 -6.713873 0.571450 0.000000 0.000000 0.000000 -10.616367 3.298057 -24.627811 16.517062 -0.313287 19.548708 -19.196253 -38.586086 9.467598 0.000000 0.000000 0.000000 -11.323655 6.798132 30.892439 1.982013 -0.315707 -23.295468 -1.827323 10.992885 29.260024 -3.291943 2.349466 -22.721870 0.000000 0.000000 0.000000 -23.307669 -17.584325 12.491657 -33.452992 -45.404550 5.103600 44.179955 -76.656629 -26.181626 0.000000 0.000000 0.000000 -8.947080 18.533580 5.997194 28.232821 51.634152 4.616011 -104.735466 35.315481 -39.898887 0.000000 0.000000 0.000000 
-0.000138 0.890801 0.002738 -11.060148 -37.879173 23.931874 7.533093 9.762559 -51.576021 7.713383 -0.483074 38.144428 -5.767836 -10.568727 0.992960 0.000000 0.000000 0.000000 -11.142372 3.606705 -26.017875 18.193880 -0.355238 19.812956 -22.508180 -42.688383 11.919229 0.000000 0.000000 0.000000 -12.065592 6.897674 29.337749 1.554582 -0.264908 -23.019948 -2.939373 12.077470 29.192728 -3.070379 2.256643 -21.240756 0.000000 0.000000 0.000000 -22.988496 -16.780277 11.852709 -34.231567 -46.596762 5.766116 39.595751 -74.244476 -21.490777 0.000000 0.000000 0.000000 -8.525841 18.271592 6.003589 26.390521 50.639721 3.655990 -101.845313 34.210532 -36.881710 0.000000 0.000000 0.000000 
-0.000164 0.887526 0.004949 -11.176544 -38.080701 24.174464 7.092060 9.988626 -52.652000 8.422875 -0.762283 39.403536 -6.403123 -12.174279 -0.166555 0.000000 0.000000 0.000000 -11.804077 3.616996 -26.032689 19.414036 -0.444797 19.544096 -23.333823 -43.470616 13.196331 0.000000 0.000000 0.000000 -12.297109 6.888930 28.852019 0.641829 -0.061425 -23.532854 -2.689961 12.904675 28.857031 -2.442084 1.951700 -20.893887 0.000000 0.000000 0.000000 -22.766472 -17.586981 12.083311 -34.629044 -46.168411 5.841463 37.007553 -70.435947 -18.369462 0.000000 0.000000 0.000000 -7.338250 18.025066 6.023376 24.223012 48.254103 2.669013 -100.160110 37.163950 -39.303852 0.000000 0.000000 0.000000 
-0.000194 0.886255 0.007501 -11.507139 -37.575322 24.511453 6.490377 9.575070 -53.099509 9.172401 -1.271639 38.509712 -6.919522 -12.847159 0.511178 0.000000 0.000000 0.000000 -11.678434 3.574048 -25.905220 19.364951 -0.491527 20.174709 -24.168732 -44.140742 14.682971 0.000000 0.000000 0.000000 -12.496922 6.864633 28.569324 1.055149 -0.041423 -24.560453 -2.721757 13.802810 29.106018 -0.649292 1.007636 -20.572109 0.000000 0.000000 0.000000 -23.184612 -17.710683 11.905059 -33.802942 -45.835671 5.424436 31.926092 -69.201908 -14.719332 0.000000 0.000000 0.000000 -7.954137 17.901557 5.910444 23.343670 45.516789 2.176249 -98.576547 39.879637 -41.126888 0.000000 0.000000 0.000000 
-0.000278 0.885167 0.009837 -11.528146 -37.420472 24.848063 6.335791 9.369626 -52.850165 9.407378 -1.436672 37.414930 -6.809476 -12.813454 0.120777 0.000000 0.000000 0.000000 -11.703151 3.600968 -26.044478 18.931602 -0.451318 19.775416 -24.229443 -44.200079 14.925106 0.000000 0.000000 0.000000 -12.376673 6.757196 28.402851 0.220792 0.121628 -24.731581 -2.858205 13.778477 28.208590 -0.497100 0.922984 -20.774815 0.000000 0.000000 0.000000 -23.602324 -17.895942 12.055355 -33.417847 -45.955263 5.436201 26.519390 -66.393547 -10.617054 0.000000 0.000000 0.000000 -7.474775 17.414537 5.853448 22.947069 44.091484 1.914817 -98.255193 43.322250 -44.815345 0.000000 0.000000 0.000000 
-0.000286 0.885113 0.011840 -11.390076 -36.755157 25.051957 5.734822 8.828747 -53.035195 10.229991 -1.926970 36.532322 -6.943214 -12.915120 0.574492 0.000000 0.000000 0.000000 -11.603602 3.585641 -26.150799 18.758088 -0.499436 19.710907 -24.782951 -44.855102 15.249933 0.000000 0.000000 0.000000 -11.958338 6.617839 28.778370 -0.052477 0.243466 -25.610806 -3.248154 13.561247 28.130144 -0.481790 0.945631 -20.918352 0.000000 0.000000 0.000000 -24.139364 -18.065996 12.235816 -33.061674 -45.674361 5.220317 23.589102 -65.337516 -8.655308 0.000000 0.000000 0.000000 -7.449083 17.173862 5.790090 21.758683 42.778213 1.425126 -97.246348 46.218103 -47.372257 0.000000 0.000000 0.000000 
-0.000238 0.884651 0.013700 -10.909690 -36.538330 24.933235 5.190426 8.502162 -53.317084 10.509924 -2.087184 36.626244 -7.068501 -13.232120 0.413304 0.000000 0.000000 0.000000 -12.045227 3.624647 -26.589571 18.908412 -0.560779 20.335749 -24.937826 -45.239071 15.154775 0.000000 0.000000 0.000000 -11.715678 6.489712 28.809048 -0.795810 0.390859 -25.777549 -3.637928 12.967546 27.525985 -0.961493 1.168326 -20.748438 0.000000 0.000000 0.000000 -24.838464 -18.216648 12.613430 -31.766627 -45.641768 4.822955 22.500151 -63.769670 -7.855187 0.000000 0.000000 0.000000 -7.576924 17.223199 5.822960 21.416585 42.228189 1.251227 -95.200696 48.246272 -48.364171 0.000000 0.000000 0.000000 
-0.000405 0.883984 0.015534 -10.624895 -36.246707 25.183454 4.400893 8.115377 -53.885039 11.306408 -2.501128 36.510193 -7.387397 -13.993486 0.105621 0.000000 0.000000 0.000000 -12.547914 3.668383 -27.046738 19.540939 -0.679158 20.751626 -26.005607 -46.505417 15.686526 0.000000 0.000000 0.000000 -11.489190 6.347827 28.720465 -1.614360 0.545999 -25.791372 -4.218388 12.334996 27.143975 -1.512987 1.432786 -20.936707 0.000000 0.000000 0.000000 -24.346195 -18.527372 12.853502 -30.934640 -46.045832 4.729838 23.153983 -62.349202 -8.066758 0.000000 0.000000 0.000000 -7.666430 17.305061 5.876670 20.307130 41.862902 0.847656 -92.598462 49.392502 -47.972427 0.000000 0.000000 0.000000 
-0.000738 0.882989 0.017406 -10.116437 -36.007042 24.915914 3.861983 7.801765 -54.257289 11.103491 -2.462805 36.883464 -7.375293 -13.933472 0.224272 0.000000 0.000000 0.000000 -13.103581 3.691138 -27.496912 20.043808 -0.811472 22.005110 -27.013542 -47.536268 16.655531 0.000000 0.000000 0.000000 -11.396739 6.426749 29.250268 -2.108529 0.659331 -26.118571 -4.427835 11.835771 27.204961 -1.834710 1.593370 -20.926334 0.000000 0.000000 0.000000 -24.362057 -18.966157 13.215950 -29.970151 -46.471392 4.526102 24.099414 -61.901010 -8.600108 0.000000 0.000000 0.000000 -8.096785 17.342232 5.862057 19.267607 41.739159 0.516013 -90.570523 50.618300 -47.925383 0.000000 0.000000 0.000000 
-0.001221 0.882109 0.019315 -9.550781 -35.635407 24.634920 3.557050 7.472058 -54.295690 10.975976 -2.447620 37.123426 -7.043899 -13.734944 -0.572092 0.000000 0.000000 0.000000 -14.068472 3.650273 -27.694831 21.120458 -1.034834 22.393578 -28.429390 -48.818797 17.963757 0.000000 0.000000 0.000000 -11.245523 6.471299 29.789464 -2.741378 0.804012 -26.477618 -4.866523 10.920625 27.117618 -2.704763 2.042475 -21.495967 0.000000 0.000000 0.000000 -23.698355 -19.044206 13.273679 -29.496769 -46.497384 4.429837 26.187555 -61.967754 -9.818810 0.000000 0.000000 0.000000 -9.153283 17.575850 5.882646 18.115529 42.062611 0.153522 -85.615454 50.649235 -44.746105 0.000000 0.000000 0.000000 
-0.001651 0.881650 0.021391 -9.257773 -35.668518 24.798547 3.366481 7.450024 -54.588020 10.670311 -2.330780 37.215220 -6.979222 -13.511598 -0.342988 0.000000 0.000000 0.000000 -14.648329 3.691450 -28.092214 22.012745 -1.191183 23.057791 -30.034028 -50.026994 19.766546 0.000000 0.000000 0.000000 -11.033065 6.404236 29.847028 -3.558782 0.968321 -26.765744 -4.849904 10.353664 26.812047 -3.252357 2.291377 -21.335314 0.000000 0.000000 0.000000 -24.091926 -19.218206 13.673415 -28.290447 -45.988448 3.892211 27.195035 -62.873561 -10.610563 0.000000 0.000000 0.000000 -10.102643 18.009852 5.976786 16.620897 42.379660 -0.312948 -81.162008 51.464332 -42.723062 0.000000 0.000000 0.000000 
